<?xml version="1.0" standalone="no"?>
<!DOCTYPE svg PUBLIC "-//W3C//DTD SVG 20010904//EN"
 "http://www.w3.org/TR/2001/REC-SVG-20010904/DTD/svg10.dtd">
<svg version="1.0" xmlns="http://www.w3.org/2000/svg"
 width="500.000000pt" height="500.000000pt" viewBox="0 0 500.000000 500.000000"
 preserveAspectRatio="xMidYMid meet">

<g transform="translate(0.000000,500.000000) scale(0.100000,-0.100000)"
fill="#000000" stroke="none">
<path d="M2530 3324 c-77 -8 -252 -43 -320 -65 -200 -65 -340 -149 -475 -284
l-100 -100 42 -3 c40 -3 45 0 105 61 77 79 213 168 331 220 295 127 724 141
1042 36 152 -51 357 -178 440 -272 40 -45 45 -48 85 -45 l44 3 -84 88 c-162
172 -378 281 -664 338 -100 19 -349 32 -446 23z"/>
<path d="M2858 2721 l-63 -59 -57 10 c-52 9 -57 12 -48 28 15 29 -8 36 -34 11
-23 -22 -44 -25 -84 -15 -18 5 -20 9 -11 21 22 26 -5 36 -35 12 -23 -18 -35
-20 -75 -15 -39 5 -51 3 -65 -12 -16 -18 -14 -20 61 -47 88 -31 169 -70 196
-93 29 -26 19 -51 -45 -119 l-63 -65 -67 5 c-45 3 -74 0 -85 -8 -14 -11 -10
-16 35 -41 29 -16 52 -35 52 -42 0 -7 4 -11 9 -8 4 3 20 -17 35 -44 15 -28 31
-50 36 -50 20 0 26 34 18 87 -5 31 -7 59 -6 64 2 4 34 35 72 68 103 91 125 83
176 -60 68 -189 61 -175 80 -151 14 17 16 30 9 69 -8 43 -7 49 18 75 28 30 24
50 -7 31 -22 -14 -30 0 -30 52 0 24 6 38 20 45 22 12 27 40 7 40 -7 0 -18 -5
-24 -11 -9 -9 -13 -2 -18 27 -3 22 -8 49 -11 61 -3 17 11 39 56 89 65 72 76
104 35 104 -16 0 -46 -20 -87 -59z"/>
<path d="M1473 2622 l-73 -3 0 -114 c0 -66 4 -115 9 -115 6 0 11 24 13 53 l3
52 58 3 c31 2 57 7 57 12 0 5 -26 10 -57 12 l-58 3 -3 38 -3 37 70 0 c39 0 71
4 71 9 0 15 -9 16 -87 13z"/>
<path d="M3180 2622 c-6 -2 -10 -52 -10 -118 0 -95 3 -114 15 -114 12 0 15 13
15 55 l0 55 60 0 c77 0 79 18 3 22 l-58 3 -3 38 -3 37 65 0 c36 0 66 4 66 9 0
9 -130 20 -150 13z"/>
<path d="M1590 2505 l0 -115 85 0 c69 0 85 3 85 15 0 12 -14 15 -70 15 l-70 0
0 40 0 40 65 0 c83 0 85 18 3 22 l-63 3 -3 38 -3 37 70 0 c41 0 71 4 71 10 0
6 -35 10 -85 10 l-85 0 0 -115z"/>
<path d="M1810 2505 l0 -115 85 0 c69 0 85 3 85 15 0 12 -14 15 -70 15 l-70 0
0 40 0 40 65 0 c37 0 65 4 65 10 0 6 -28 10 -65 10 l-65 0 0 40 0 40 70 0 c40
0 70 4 70 10 0 6 -35 10 -85 10 l-85 0 0 -115z"/>
<path d="M2020 2505 l0 -115 75 0 c60 0 75 3 75 15 0 12 -13 15 -60 15 l-60 0
0 100 c0 82 -3 100 -15 100 -12 0 -15 -19 -15 -115z"/>
<path d="M3370 2505 c0 -96 3 -115 15 -115 11 0 15 12 15 50 l0 51 58 -3 c52
-3 57 -5 60 -28 5 -50 13 -70 25 -70 15 0 10 88 -6 108 -7 9 -7 16 1 24 16 16
15 71 0 86 -7 7 -43 12 -90 12 l-78 0 0 -115z m149 73 c15 -41 -3 -58 -64 -58
l-55 0 0 40 0 40 55 0 c49 0 57 -3 64 -22z"/>
<path d="M3610 2505 l0 -115 85 0 c69 0 85 3 85 15 0 12 -15 15 -76 15 l-75 0
3 38 3 37 63 3 c34 2 62 7 62 12 0 5 -28 10 -62 12 l-63 3 -3 38 -3 37 70 0
c38 0 73 5 76 10 4 6 -25 10 -79 10 l-86 0 0 -115z"/>
<path d="M3820 2505 l0 -115 85 0 c69 0 85 3 85 15 0 12 -14 15 -70 15 l-70 0
0 40 0 40 65 0 c37 0 65 4 65 10 0 6 -28 10 -65 10 l-65 0 0 40 0 40 70 0 c40
0 70 4 70 10 0 6 -35 10 -85 10 l-85 0 0 -115z"/>
<path d="M1660 2120 c0 -19 147 -156 216 -202 142 -94 278 -151 464 -194 82
-20 145 -26 286 -31 189 -6 276 1 431 38 230 55 473 190 600 335 l52 59 -40 3
c-38 3 -45 -1 -111 -63 -154 -146 -345 -238 -592 -287 -157 -31 -415 -31 -572
0 -242 48 -436 141 -587 282 -64 60 -80 70 -111 70 -20 0 -36 -4 -36 -10z"/>
</g>
</svg>
